<svg width="18" height="16" viewBox="0 0 18 16" fill="none" xmlns="http://www.w3.org/2000/svg">
<path d="M17.9536 2.27784C17.8724 1.81497 17.6912 1.39139 17.4381 1.04148C17.3847 0.965233 17.329 0.896953 17.2685 0.828674C16.8201 0.318347 16.1908 0 15.5032 0H2.49684C1.80929 0 1.18217 0.318347 0.731638 0.828674C0.671345 0.896953 0.615587 0.965233 0.562079 1.04148C0.308848 1.39135 0.127617 1.81497 0.0487267 2.27784C0.0163125 2.45648 0 2.64109 0 2.82774V13.1725C0 13.5694 0.0743205 13.9509 0.20686 14.2954C0.329801 14.6243 0.511067 14.9218 0.731603 15.1713C0.787502 15.2345 0.843013 15.2925 0.903588 15.3502C1.33552 15.7553 1.89306 16 2.49684 16H15.5032C16.1072 16 16.6672 15.7553 17.0966 15.3477C17.157 15.2925 17.2128 15.2345 17.2685 15.1713C17.489 14.9218 17.6702 14.6243 17.7957 14.2954V14.2928C17.9282 13.9483 18 13.5694 18 13.1726V2.82774C18 2.64109 17.984 2.45648 17.9536 2.27784ZM1.63509 1.85168C1.85815 1.59934 2.15772 1.44658 2.49684 1.44658H15.5032C15.8423 1.44658 16.1445 1.59934 16.365 1.85168C16.4044 1.89662 16.4416 1.94671 16.4744 1.99648L9.6573 8.72472C9.46929 8.91133 9.23704 9.00349 9.00002 9.00349C8.76538 9.00349 8.53328 8.91133 8.34277 8.72472L1.52832 1.99361C1.55848 1.94384 1.59564 1.89662 1.63509 1.85168ZM1.27737 13.1725V3.49055L6.21065 8.36429L1.27987 13.2329C1.27737 13.2144 1.27737 13.1936 1.27737 13.1725ZM15.5032 14.5531H2.49684C2.27602 14.5531 2.06941 14.4874 1.89306 14.3719L7.09542 9.23764L7.58111 9.71611C7.98755 10.1161 8.49616 10.3186 9.00002 10.3186C9.50648 10.3186 10.0151 10.1161 10.4215 9.71611L10.9069 9.23764L16.1072 14.3719C15.9306 14.4874 15.724 14.5531 15.5032 14.5531ZM16.7227 13.1725C16.7227 13.1936 16.7227 13.2144 16.7203 13.2329L11.7895 8.36712L16.7227 3.49314V13.1725Z" fill="white"/>
</svg>
