<svg width="150" height="150" viewBox="0 0 150 150" fill="none" xmlns="http://www.w3.org/2000/svg">
<g clip-path="url(#clip0_510_2353)">
<path fill-rule="evenodd" clip-rule="evenodd" d="M75 0C116.394 0 150 33.6062 150 75C150 116.394 116.394 150 75 150C33.6062 150 0 116.394 0 75C0 33.6062 33.6062 0 75 0ZM75 6.25C112.944 6.25 143.75 37.0562 143.75 75C143.75 112.944 112.944 143.75 75 143.75C37.0562 143.75 6.25 112.944 6.25 75C6.25 37.0562 37.0562 6.25 75 6.25ZM118.75 52.8562L62.4687 112.637L31.25 75.9812L36.0063 71.925L62.7 103.275L114.2 48.575L118.75 52.8562Z" fill="#2148C0"/>
</g>
<defs>
<clipPath id="clip0_510_2353">
<rect width="150" height="150" fill="white"/>
</clipPath>
</defs>
</svg>
