<svg width="120" height="120" viewBox="0 0 120 120" fill="none" xmlns="http://www.w3.org/2000/svg">
<path d="M119.639 106.151V12.8096C119.639 5.62633 113.188 0 104.953 0H34.8592C26.5421 0 19.5158 5.86555 19.5158 12.8089V40.2533C19.5158 41.0917 20.276 41.7723 21.2127 41.7723H28.8492C29.7859 41.7723 30.5462 41.0918 30.5462 40.2533V12.8089C30.5462 11.6119 32.2263 9.87333 34.8592 9.87333H104.952C107.635 9.87333 108.608 11.6293 108.608 12.8089V107.181C108.608 108.365 107.635 110.127 104.952 110.127H34.8592C32.2263 110.127 30.5462 108.382 30.5462 107.181V80.5065C30.5462 79.6681 29.786 78.9877 28.8492 78.9877H21.2127C20.276 78.9877 19.5158 79.6681 19.5158 80.5065V107.181C19.5158 114.13 26.5421 120 34.8592 120H104.952C113.461 120 119.931 114.455 120 107.102C120.004 106.756 119.875 106.421 119.639 106.151ZM104.953 116.962H34.8592C28.3817 116.962 22.9097 112.483 22.9097 107.181V82.0254H27.1523V107.181C27.1523 110.071 30.2494 113.165 34.8594 113.165H104.952C109.365 113.165 112.002 110.122 112.002 107.181V12.8089C112.003 9.8728 109.366 6.83542 104.953 6.83542H34.8592C30.2492 6.83542 27.1521 9.92422 27.1521 12.8089V38.7342H22.9095V12.8089C22.9095 7.51289 28.3815 3.03808 34.859 3.03808H104.951C111.285 3.03808 116.245 7.33001 116.245 12.8089V107.089C116.245 107.415 116.36 107.718 116.557 107.966C116.015 113.153 111.192 116.962 104.953 116.962Z" fill="white"/>
<path d="M37.3343 94.9503C37.3343 95.5498 37.7273 96.0918 38.3383 96.3364C38.5604 96.426 38.7973 96.4695 39.0314 96.4695C39.4404 96.4695 39.8443 96.3372 40.1626 96.0835L83.9148 61.1279C84.2754 60.8399 84.4817 60.4276 84.4817 59.9946C84.4817 59.5618 84.2754 59.1494 83.9148 58.8615L40.1616 23.9057C39.6618 23.5071 38.9483 23.4067 38.3383 23.6528C37.7273 23.8974 37.3343 24.4405 37.3343 25.0388V43.291H1.69707C0.760396 43.291 0 43.9714 0 44.81V76.7088C0 77.5472 0.7602 78.2277 1.69707 78.2277H37.3343V94.9503ZM3.39414 75.1899V46.329H39.0312C39.9679 46.329 40.7283 45.6486 40.7283 44.8102V28.4309L80.2354 59.9946L40.7283 91.5587V76.709C40.7283 75.8706 39.9681 75.1901 39.0312 75.1901H3.39414V75.1899Z" fill="white"/>
</svg>
