<svg width="120" height="130" viewBox="0 0 120 130" fill="none" xmlns="http://www.w3.org/2000/svg">
<path d="M108 56.8989H12C5.4 56.8989 0 61.7723 0 67.7287V119.17C0 125.127 5.4 130 12 130H108C114.6 130 120 125.127 120 119.17V67.7287C120 61.7723 114.6 56.8989 108 56.8989ZM75 115.109C70.5 117.817 65.4 119.17 60 119.17C58.2 119.17 56.4 118.899 54.6 118.629C47.4 117.275 41.4 113.755 37.5 108.34L47.4 102.384C49.5 105.362 53.1 107.528 57 108.07C60.9 108.882 64.8 108.07 68.4 105.904C75.3 101.843 77.1 93.1787 72.6 87.2223C70.5 84.2442 66.9 82.0782 63 81.5367C59.1 80.7245 55.2 81.5367 51.6 83.7027C50.7 84.2442 50.1 84.7856 49.5 85.3271L60 94.8032H33V70.4362L40.8 77.4755C42 76.3926 43.5 75.3096 44.7 74.4973C50.7 70.9777 57.9 69.6239 65.1 70.7069C72.3 72.0606 78.3 75.5803 82.2 80.9952C90.6 92.3665 87.3 107.528 75 115.109Z" fill="white"/>
<path d="M15 46.0691H27C28.8 46.0691 30 45.2569 30 43.6324V43.3617C30 27.9292 44.7 15.2042 62.1 16.2872C78 17.3701 90 29.8244 90 44.4446V43.6324C90 45.2569 91.2 46.0691 93 46.0691H105C106.8 46.0691 108 45.2569 108 43.6324V43.3617C108 18.7239 85.2 -1.0405 57.6 0.0424782C32.1 1.12546 12.6 20.6191 12 43.6324C12.3 44.9861 13.5 46.0691 15 46.0691Z" fill="white"/>
</svg>
