<?xml version="1.0" standalone="no"?>
<!DOCTYPE svg PUBLIC "-//W3C//DTD SVG 20010904//EN"
 "http://www.w3.org/TR/2001/REC-SVG-20010904/DTD/svg10.dtd">
<svg version="1.0" xmlns="http://www.w3.org/2000/svg"
 width="512.000000pt" height="512.000000pt" viewBox="0 0 512.000000 512.000000"
 preserveAspectRatio="xMidYMid meet">
<metadata>
Created by potrace 1.14, written by Peter Selinger 2001-2017
</metadata>
<g transform="translate(0.000000,512.000000) scale(0.100000,-0.100000)"
fill="#000000" stroke="none">
<path d="M2055 3790 c-203 -89 -544 -236 -757 -327 l-388 -167 0 -35 0 -36
343 -146 342 -145 3 -120 c2 -65 0 -161 -3 -211 -6 -81 -9 -93 -25 -93 -23 0
-86 -73 -100 -116 -9 -27 -8 -40 4 -66 21 -43 69 -94 108 -114 l30 -16 -30
-31 c-17 -18 -47 -61 -68 -97 -46 -82 -70 -109 -112 -127 -50 -21 -60 -53 -37
-119 10 -30 23 -54 29 -54 22 0 112 48 133 71 11 13 40 63 64 112 42 87 94
158 128 177 17 8 17 5 10 -33 -10 -51 -11 -133 -3 -175 5 -22 14 -34 35 -41
21 -7 29 -17 29 -34 0 -33 38 -179 50 -191 8 -8 155 16 167 27 2 2 -15 42 -36
88 -37 79 -43 104 -76 304 l-5 30 78 1 c95 2 196 27 240 61 29 22 33 30 30 60
l-4 35 60 -7 c34 -5 169 -9 301 -10 162 -1 247 -5 261 -13 30 -16 55 -85 61
-169 3 -40 8 -73 10 -73 2 0 152 99 333 221 l330 220 0 232 0 232 155 94 c86
52 154 99 152 105 -2 5 -17 14 -33 18 -28 8 -573 123 -903 191 -91 18 -166 37
-168 43 -1 5 4 17 11 27 13 16 43 11 522 -88 565 -117 609 -128 622 -151 8
-14 38 1 196 97 l187 114 -3 34 -3 34 -365 104 c-201 57 -617 175 -925 263
-308 87 -571 161 -585 164 -18 4 -126 -38 -395 -154z m-239 -1446 c30 -8 30
-19 0 -55 -13 -15 -26 -34 -29 -41 -8 -22 -14 -5 -22 56 -6 53 -5 58 10 52 9
-3 28 -9 41 -12z"/>
</g>
</svg>
